<svg xmlns="http://www.w3.org/2000/svg" version="1.0" width="1401.000000pt" height="1266.000000pt" viewBox="0 0 1401.000000 1266.000000" preserveAspectRatio="xMidYMid meet">

<g transform="translate(0.000000,1266.000000) scale(0.100000,-0.100000)" stroke="none">

  <!-- Background / outer shape -->
  <path fill="#000000" d="M0 6330 l0 -6330 7005 0 7005 0 0 6330 0 6330 -7005 0 -7005 0 0 -6330z m5280 3460 c41 -6 109 -14 150 -19 41 -5 86 -13 100 -18 14 -6 48 -13 76 -17 98 -12 280 -64 336 -96 10 -5 34 -14 55 -19 68 -17 153 -50 211 -80 31 -17 83 -42 115 -57 158 -71 373 -208 537 -342 127 -103 139 -112 150 -112 7 0 53 35 104 78 50 42 105 86 121 96 17 11 46 32 65 48 123 103 570 331 725 369 21 6 44 14 50 18 32 24 155 59 340 96 39 8 88 18 110 24 22 5 94 17 160 26 137 18 565 21 680 5 39 -6 104 -14 145 -19 42 -4 85 -13 97 -20 12 -6 32 -11 45 -11 43 0 242 -51 331 -86 49 -19 94 -34 101 -34 6 0 50 -16 96 -36 47 -19 95 -39 107 -44 11 -5 24 -14 28 -19 3 -6 13 -11 22 -11 19 0 214 -98 292 -147 313 -198 512 -368 771 -663 51 -58 97 -116 103 -130 6 -14 21 -35 33 -48 12 -12 43 -55 69 -95 26 -39 55 -83 64 -97 10 -14 20 -32 23 -40 3 -8 29 -53 57 -100 29 -46 54 -96 58 -110 3 -14 12 -32 20 -42 17 -19 93 -192 93 -211 0 -6 6 -23 13 -37 20 -38 52 -135 77 -230 12 -47 28 -105 36 -130 30 -97 55 -263 67 -435 18 -263 17 -4177 -1 -4254 -19 -85 -91 -168 -182 -210 l-55 -26 -785 0 c-749 0 -787 1 -835 19 -80 31 -130 79 -172 164 l-38 75 -1 2036 c-1 1921 -2 2041 -19 2131 -18 94 -37 148 -97 265 -87 171 -268 349 -433 424 -27 13 -59 28 -69 33 -92 48 -195 66 -371 66 -160 1 -204 -6 -325 -51 -179 -65 -235 -102 -386 -253 -92 -92 -119 -126 -161 -205 -53 -100 -82 -176 -104 -274 -11 -49 -15 -436 -19 -2110 l-5 -2050 -29 -68 c-16 -40 -43 -81 -63 -100 -20 -17 -43 -39 -52 -47 -9 -8 -36 -24 -61 -35 -43 -19 -66 -20 -830 -20 -745 0 -788 1 -835 19 -90 34 -173 118 -191 193 -4 15 -10 33 -14 38 -5 6 -10 923 -13 2040 -6 2023 -6 2030 -27 2135 -30 149 -100 301 -189 410 -46 57 -170 180 -182 180 -4 0 -33 20 -65 45 -31 25 -65 45 -75 45 -10 0 -20 4 -23 8 -3 5 -38 21 -78 36 -40 16 -86 36 -103 45 -25 13 -64 16 -245 16 -209 0 -217 -1 -287 -27 -219 -83 -388 -198 -490 -335 -15 -21 -39 -52 -53 -68 -26 -32 -97 -170 -123 -240 -41 -112 -41 -93 -47 -2240 l-5 -2060 -43 -72 c-41 -70 -77 -102 -165 -151 -30 -16 -89 -17 -832 -17 l-800 0 -54 30 c-71 39 -159 136 -167 184 -3 20 -10 49 -14 64 -13 40 -14 6646 -2 6678 6 13 15 43 21 66 14 51 96 136 161 167 42 20 60 21 317 21 180 0 276 -4 283 -11 7 -7 10 -148 10 -443 0 -381 2 -432 16 -438 10 -4 44 22 103 78 191 184 382 336 530 426 111 67 307 173 318 173 5 0 44 18 86 40 42 21 116 52 164 69 48 16 106 37 128 47 52 22 292 84 327 84 15 0 39 5 55 11 15 6 66 15 113 21 47 5 108 13 135 18 74 11 528 11 615 0z"/>

  <!-- Inner “m” / logo detail (set to white) -->
  <path fill="#FFFFFF" stroke="#FFFFFF"
  stroke-width="40" d="M4720 8991 c-47 -4 -106 -13 -132 -19 -66 -16 -131 -31 -208 -48 -66 -14 -164 -47 -210 -71 -14 -7 -32 -13 -40 -13 -9 0 -24 -6 -35 -14 -11 -7 -33 -16 -50 -20 -16 -4 -32 -11 -35 -15 -3 -4 -49 -31 -103 -59 -114 -60 -251 -147 -322 -206 -27 -22 -63 -52 -80 -66 -62 -50 -269 -265 -318 -329 -28 -36 -54 -68 -57 -71 -4 -3 -13 -16 -20 -30 -7 -14 -25 -41 -40 -60 -34 -43 -146 -256 -195 -370 -20 -47 -42 -96 -49 -110 -7 -14 -17 -43 -20 -65 -7 -41 -27 -115 -53 -195 -8 -25 -24 -103 -35 -175 -21 -128 -22 -154 -25 -1926 -3 -1640 -2 -1798 12 -1813 14 -14 47 -16 224 -16 160 0 211 3 219 13 8 10 13 518 16 1763 5 1847 5 1857 51 2024 8 30 15 66 15 80 0 14 7 38 15 54 8 15 15 33 15 40 1 6 9 29 20 51 11 22 19 45 20 51 0 11 31 81 56 129 9 17 33 62 54 100 82 155 273 387 404 490 21 17 52 41 69 55 58 47 152 109 217 143 36 18 83 45 105 58 40 26 108 52 178 70 21 5 45 13 55 19 9 5 40 16 67 24 288 87 777 72 1022 -31 17 -7 39 -13 50 -13 10 0 56 -20 103 -43 47 -24 110 -56 140 -71 178 -90 373 -249 522 -427 166 -196 341 -539 363 -706 3 -27 12 -70 20 -98 40 -143 39 -117 42 -1964 3 -1280 7 -1788 14 -1798 9 -10 61 -13 230 -13 206 0 219 1 229 19 7 13 10 579 10 1758 0 1118 4 1761 10 1803 6 36 13 90 16 120 3 30 12 71 19 90 7 19 16 56 19 82 7 60 38 153 82 246 19 40 34 76 34 79 0 10 88 157 147 246 99 149 188 244 354 379 106 87 264 188 292 188 5 0 27 13 50 29 42 28 162 81 186 81 7 0 27 6 44 14 96 43 177 60 380 81 237 24 556 -12 714 -81 17 -8 37 -14 45 -14 20 0 156 -57 186 -78 15 -11 52 -31 82 -46 177 -88 450 -312 527 -433 15 -24 30 -43 34 -43 4 0 22 -24 40 -52 18 -29 43 -65 55 -80 28 -35 154 -290 154 -313 0 -9 9 -33 19 -53 30 -57 66 -200 103 -407 9 -54 13 -476 15 -1829 3 -1262 7 -1763 14 -1773 9 -10 61 -13 230 -13 218 0 219 0 224 23 3 12 4 837 3 1832 -3 1689 -4 1816 -21 1895 -30 144 -34 162 -62 265 -15 55 -31 116 -34 135 -4 19 -12 44 -18 55 -14 28 -36 77 -74 165 -17 41 -43 92 -56 113 -13 21 -28 49 -33 62 -31 80 -202 313 -335 454 -92 97 -318 288 -369 311 -6 3 -42 24 -81 48 -94 58 -90 56 -170 99 -85 46 -312 140 -380 158 -27 7 -84 20 -125 29 -41 8 -109 23 -150 33 -113 26 -630 25 -745 -1 -135 -31 -298 -74 -345 -91 -109 -39 -228 -88 -265 -110 -22 -12 -75 -41 -118 -64 -67 -36 -167 -97 -202 -124 -5 -4 -41 -30 -78 -58 -95 -70 -299 -275 -388 -389 -97 -123 -145 -200 -236 -372 -24 -46 -44 -35 -85 45 -47 91 -110 190 -184 292 -69 93 -340 368 -410 415 -27 19 -65 47 -85 64 -73 62 -368 225 -462 256 -22 7 -51 18 -65 26 -15 8 -33 14 -40 14 -8 0 -26 7 -40 15 -15 8 -58 21 -97 30 -38 8 -119 26 -180 39 -96 22 -140 26 -350 30 -132 2 -278 1 -325 -3z"/>
</g>
</svg>